<svg width="28" height="28" viewBox="0 0 28 28" fill="none" xmlns="http://www.w3.org/2000/svg">
<g id="Material Icons">
<path id="Vector" d="M19.304 15.1666C20.179 15.1666 20.949 14.6883 21.3456 13.965L25.5223 6.39331C25.954 5.62331 25.394 4.66665 24.5073 4.66665H7.24065L6.14398 2.33331H2.32898V4.66665H4.66231L8.86231 13.5216L7.28731 16.3683C6.43565 17.9316 7.55565 19.8333 9.32898 19.8333H23.329V17.5H9.32898L10.6123 15.1666H19.304ZM8.34898 6.99998H22.524L19.304 12.8333H11.114L8.34898 6.99998ZM9.32898 21C8.04565 21 7.00731 22.05 7.00731 23.3333C7.00731 24.6166 8.04565 25.6666 9.32898 25.6666C10.6123 25.6666 11.6623 24.6166 11.6623 23.3333C11.6623 22.05 10.6123 21 9.32898 21ZM20.9956 21C19.7123 21 18.674 22.05 18.674 23.3333C18.674 24.6166 19.7123 25.6666 20.9956 25.6666C22.279 25.6666 23.329 24.6166 23.329 23.3333C23.329 22.05 22.279 21 20.9956 21Z" fill="white"/>
</g>
</svg>