<svg width="24" height="24" viewBox="0 0 24 24" fill="none" xmlns="http://www.w3.org/2000/svg">
<g id="pdf-svgrepo-com 1" clip-path="url(#clip0_2006_2355)">
<g id="Group">
<path id="Vector" d="M17.7381 0H9.76391H9.146L8.70936 0.436594L2.6728 6.47353L2.23621 6.91012V7.52775V19.9737C2.23621 22.1937 4.04221 24 6.26258 24H17.7381C19.9578 24 21.7638 22.1937 21.7638 19.9737V4.02638C21.7638 1.806 19.9578 0 17.7381 0ZM20.2733 19.9737C20.2733 21.3742 19.1383 22.5092 17.7381 22.5092H6.26258C4.86177 22.5092 3.72674 21.3742 3.72674 19.9737V7.5277H7.65092C8.81741 7.5277 9.76391 6.58186 9.76391 5.41505V1.49081H17.7381C19.1383 1.49081 20.2733 2.62584 20.2733 4.02638V19.9737Z" fill="black"/>
<path id="Vector_2" d="M8.06001 11.8491H6.72271C6.46808 11.8491 6.31555 12.0147 6.31555 12.2628V15.72C6.31555 16.0194 6.51261 16.2168 6.78622 16.2168C7.05393 16.2168 7.25094 16.0195 7.25094 15.72V14.6697C7.25094 14.6442 7.26402 14.6314 7.28957 14.6314H8.06001C9.00196 14.6314 9.56882 14.0583 9.56882 13.2434C9.56886 12.4157 9.00852 11.8491 8.06001 11.8491ZM8.00244 13.8227H7.28957C7.26402 13.8227 7.25094 13.8099 7.25094 13.7847V12.6958C7.25094 12.6703 7.26402 12.6576 7.28957 12.6576H8.00244C8.39713 12.6576 8.63277 12.8932 8.63277 13.2434C8.63282 13.5936 8.39713 13.8227 8.00244 13.8227Z" fill="black"/>
<path id="Vector_3" d="M11.7277 11.8491H10.7026C10.448 11.8491 10.2955 12.0147 10.2955 12.2628V15.7711C10.2955 16.0195 10.448 16.1785 10.7026 16.1785H11.7277C12.6507 16.1785 13.2241 15.8856 13.4532 15.179C13.5357 14.9305 13.5808 14.6314 13.5808 14.0138C13.5808 13.3962 13.5356 13.0971 13.4532 12.8487C13.224 12.142 12.6507 11.8491 11.7277 11.8491ZM12.5557 14.8543C12.4471 15.198 12.1355 15.3446 11.7021 15.3446H11.2695C11.2439 15.3446 11.2309 15.3318 11.2309 15.3063V12.7214C11.2309 12.6958 11.2439 12.6831 11.2695 12.6831H11.7021C12.1355 12.6831 12.4471 12.8297 12.5557 13.1734C12.6003 13.32 12.6317 13.5746 12.6317 14.0139C12.6317 14.4531 12.6002 14.7077 12.5557 14.8543Z" fill="black"/>
<path id="Vector_4" d="M16.9297 11.8491H14.8291C14.5745 11.8491 14.4213 12.0147 14.4213 12.2628V15.72C14.4213 16.0194 14.619 16.2168 14.8927 16.2168C15.1597 16.2168 15.3574 16.0195 15.3574 15.72V14.4848C15.3574 14.4596 15.3698 14.4468 15.3953 14.4468H16.6181C16.8917 14.4468 17.0508 14.2813 17.0508 14.0456C17.0508 13.8099 16.8917 13.6447 16.6181 13.6447H15.3953C15.3698 13.6447 15.3574 13.6319 15.3574 13.6064V12.6958C15.3574 12.6703 15.3698 12.6576 15.3953 12.6576H16.9297C17.1909 12.6576 17.3631 12.4857 17.3631 12.2567C17.363 12.0209 17.1908 11.8491 16.9297 11.8491Z" fill="black"/>
</g>
</g>
<defs>
<clipPath id="clip0_2006_2355">
<rect width="24" height="24" fill="white"/>
</clipPath>
</defs>
</svg>
