<svg width="119" height="28" viewBox="0 0 119 28" fill="none" xmlns="http://www.w3.org/2000/svg">
<g id="Vector">
<path fill-rule="evenodd" clip-rule="evenodd" d="M7.0117 1.75V28H0V1.75H7.0117Z" fill="white"/>
<path fill-rule="evenodd" clip-rule="evenodd" d="M10.5175 1.75H25.4174C30.258 1.75 34.1821 5.66751 34.1821 10.5C34.1821 15.3325 30.258 19.25 25.4174 19.25H17.5292V28H10.5175V1.75ZM17.5292 12.25H25.4174C26.3856 12.25 27.1704 11.4665 27.1704 10.5C27.1704 9.53351 26.3856 8.75 25.4174 8.75H17.5292V12.25Z" fill="white"/>
<path fill-rule="evenodd" clip-rule="evenodd" d="M60.476 1.75V15.3125C60.476 18.4536 63.0266 21 66.173 21C69.3194 21 71.8701 18.4536 71.8701 15.3125V1.75H78.882V15.3125C78.882 22.3196 73.192 28 66.173 28C59.1542 28 53.4643 22.3196 53.4643 15.3125V1.75H60.476Z" fill="white"/>
<path fill-rule="evenodd" clip-rule="evenodd" d="M36.8115 14C36.8115 7.2345 42.3052 1.75 49.082 1.75H50.8349V8.75H49.082C46.1776 8.75 43.8232 11.1005 43.8232 14V14.875C43.8232 22.1237 37.9371 28 30.6762 28H29.7998V21H30.6762C34.0647 21 36.8115 18.2577 36.8115 14.875V14Z" fill="white"/>
<path d="M118.323 2.625C118.323 4.07475 117.146 5.25 115.693 5.25C114.241 5.25 113.064 4.07475 113.064 2.625C113.064 1.17525 114.241 0 115.693 0C117.146 0 118.323 1.17525 118.323 2.625Z" fill="white"/>
<path d="M86.4105 28L89.7564 14.0127L92.244 22.4275C93.7269 27.4464 100.848 27.4464 102.332 22.4275L104.818 14.0127L108.164 28H115.373L110.112 6.00564C108.861 0.775208 101.478 0.581547 99.9532 5.73924L97.2878 14.7583L94.6217 5.73924C93.0975 0.581577 85.7139 0.77518 84.4627 6.00564L79.2019 28H86.4105Z" fill="white"/>
</g>
</svg>