<svg width="28" height="28" viewBox="0 0 28 28" fill="none" xmlns="http://www.w3.org/2000/svg">
<g id="Material Icons">
<path id="Vector" d="M14 7.00002C15.2834 7.00002 16.3334 8.05002 16.3334 9.33335C16.3334 10.6167 15.2834 11.6667 14 11.6667C12.7167 11.6667 11.6667 10.6167 11.6667 9.33335C11.6667 8.05002 12.7167 7.00002 14 7.00002ZM14 18.6667C17.15 18.6667 20.7667 20.1717 21 21H7.00002C7.26835 20.16 10.8617 18.6667 14 18.6667ZM14 4.66669C11.4217 4.66669 9.33335 6.75502 9.33335 9.33335C9.33335 11.9117 11.4217 14 14 14C16.5784 14 18.6667 11.9117 18.6667 9.33335C18.6667 6.75502 16.5784 4.66669 14 4.66669ZM14 16.3334C10.885 16.3334 4.66669 17.8967 4.66669 21V23.3334H23.3334V21C23.3334 17.8967 17.115 16.3334 14 16.3334Z" fill="white"/>
</g>
</svg>
